<svg xmlns="http://www.w3.org/2000/svg" viewBox="0 0 74.9 68.31">
  <title>cat_1</title>
  <g id="Layer_2" data-name="Layer 2">
    <g id="Layer_1-2" data-name="Layer 1">
      <g>
        <g>
          <path d="M20.57,9.29l.54-.16a18.17,18.17,0,0,1,7.11-1.57,43.84,43.84,0,0,0-1.82,7.37,14.85,14.85,0,0,0,.73,7.34,23.35,23.35,0,0,1-4.25,1.35l-.73-.07A36.65,36.65,0,0,0,20.57,9.29Z" transform="translate(-0.1 -0.1)" fill="#ffc852"/>
          <path d="M47.33,8.24l.2-.05a.43.43,0,0,0,.39.32c.42-1.12,1.78-1.54,3-1.67a14.33,14.33,0,0,1,5,.31h0l-.08.32A28.65,28.65,0,0,0,52.6,22.11,9.37,9.37,0,0,1,48.48,18h0A29.83,29.83,0,0,0,47.33,8.24Z" transform="translate(-0.1 -0.1)" fill="#ffc852"/>
          <g>
            <path d="M.1,59.34a11.3,11.3,0,0,1,.23-2.66A7.09,7.09,0,0,1,6,51.42l.56-.31a23,23,0,0,0,2.3,3.53,6.39,6.39,0,0,0-2.55,2.17c-.45.66-1.77,2.94-.72,3.5s3,.15,4.2-.18,2.23-1,2.29-2.15a20,20,0,0,0,2,1.52c.55.36,1.12.7,1.69,1l0,0c.32.78-.26,1.63-.87,2.23a17.25,17.25,0,0,1-6.09,3.71,36.42,36.42,0,0,1-3.54,1.13c-1,.26-2.33.91-3.27.34C.84,67.26.72,65.19.52,64A30.35,30.35,0,0,1,.1,59.34Z" transform="translate(-0.1 -0.1)" fill="#ffc852"/>
            <path d="M3.91,41.36a21.55,21.55,0,0,1,.17-3.5l.06-.42.18,0a7,7,0,0,1,3.26,1.07c.2.13.4.26.59.41s.41.28.38.51-.43.22-.64.24a7.81,7.81,0,0,0-.82.14,6.76,6.76,0,0,0-1.57.59,6.46,6.46,0,0,0-1.59,1.2Z" transform="translate(-0.1 -0.1)" fill="#ffc852"/>
            <path d="M25.18,33.81a3.42,3.42,0,0,0-.54-1.27,1.86,1.86,0,0,0-2-.79,2.06,2.06,0,0,0-1.16,1.37,7.25,7.25,0,0,0-.22.86,15,15,0,0,0,.21,7,1.2,1.2,0,0,0,1,1h.2a2.3,2.3,0,0,0,1.92-.56,4.07,4.07,0,0,0,.87-2.61,20.79,20.79,0,0,0-.11-4A7,7,0,0,0,25.18,33.81Zm-2.63-3.35v-.1a20,20,0,0,0,3.09-.24c.32-.05.7-.15.83-.44a.7.7,0,0,0,0-.53,1.89,1.89,0,0,0-1.08-1,5,5,0,0,0-1.49-.29A36,36,0,0,0,18,27.81a2.71,2.71,0,0,0-1.26.29,1,1,0,0,0-.51,1c.16.44.69.63,1.17.73A22.67,22.67,0,0,0,22.55,30.46ZM41.65,34a2,2,0,0,0,1.14-.5v0a1.78,1.78,0,0,0,.29-.12,1.72,1.72,0,0,0,.61-.59A2.26,2.26,0,0,0,44,31.48a4.6,4.6,0,0,0-.78-2.09A7.94,7.94,0,0,0,41,26.84,4.81,4.81,0,0,0,38.8,26v-.08a1.94,1.94,0,0,1,1.44-2.34,2.32,2.32,0,0,1,.45-.06,1.59,1.59,0,0,1,1.12.2,4,4,0,0,1,.49.52.68.68,0,0,0,.64.24.31.31,0,0,0,0-.1h-.09a1.92,1.92,0,0,0-2-1.5,2.84,2.84,0,0,0-.77.08v0c.13-.05.2-.28.19-.46a4.11,4.11,0,0,0-.4-1.79,1.85,1.85,0,0,0-3.39,0,4.07,4.07,0,0,0-.34,2.34v.06a2.33,2.33,0,0,0-1.84.67c-.17.18-.32.39-.5.55l0,0a.17.17,0,0,0,0,.1.29.29,0,0,0,.16.29.47.47,0,0,0,.43,0,1.39,1.39,0,0,0,.35-.29,1.92,1.92,0,0,1,1-.6,2.44,2.44,0,0,1,.54,0,1.93,1.93,0,0,1,1.2.45,1.45,1.45,0,0,1,.29.95c0,.29,0,.58,0,.86h0a4.74,4.74,0,0,0-1.36.5,7.08,7.08,0,0,0-3.73,5,2.16,2.16,0,0,0,.55,2.08,2.53,2.53,0,0,0,1.54.37q3,.07,6.05.06A6.94,6.94,0,0,0,41.65,34ZM56,31.23v-.1a19.69,19.69,0,0,0,3.08-.24c.33-.05.71-.14.85-.43a.75.75,0,0,0,0-.53,1.87,1.87,0,0,0-1.08-1,5.39,5.39,0,0,0-1.5-.29,38.47,38.47,0,0,0-5.88-.06,2.81,2.81,0,0,0-1.26.29.92.92,0,0,0-.51,1c.15.44.69.62,1.17.73A23.43,23.43,0,0,0,56,31.23Zm8.3-6.45a27.46,27.46,0,0,1,3.13,5.47c.11.42.21.84.29,1.26l-.17-.31A12.68,12.68,0,0,1,68,32.54a28.44,28.44,0,0,1,.51,3.18,5.85,5.85,0,0,0-2.11.32,5.74,5.74,0,0,0-1.44.73c-.22.15-.41.34-.63.51,0,0-.07,0-.07.11a.29.29,0,0,0,0,.16.33.33,0,0,0,.26.18l.8.13a7.59,7.59,0,0,1,1.55.43,4.32,4.32,0,0,1,1.87,1.42c0,.77,0,1.54,0,2.3a6,6,0,0,0-1.7-.13,5.92,5.92,0,0,0-1.72.35,6.39,6.39,0,0,0-.81.35c-.21.11-.49.21-.54.48a.25.25,0,0,0,.07.25.25.25,0,0,0,.14.06,5.25,5.25,0,0,1,1.33.52,4.45,4.45,0,0,1,1.12,1,7.52,7.52,0,0,1,1.26,2.33A16.06,16.06,0,0,1,66.17,51c-.11.2-.23.38-.35.57a19.59,19.59,0,0,1-2.37,2.85c-.83.84-1.71,1.63-2.58,2.42l-1.16,1a20.51,20.51,0,0,1-3.4,2.5,4,4,0,0,1-.46.24l.09.18c-2.46,1.94-5.76,2.32-8.88,2.63-2.22.22-4.44.44-6.66.6-1,.08-2,.14-3.08.19a6.79,6.79,0,0,1,.41-.75,6.77,6.77,0,0,0-.52.56c-.06.07-.12.13-.17.2-1,0-2.06.07-3.09.08L34,64a5.79,5.79,0,0,1,.89-1.57L33.87,62l.05,0c.13-.19,0-.54-.08-.77l-.92-3.94a1.5,1.5,0,0,0-.67-1.13.17.17,0,0,0-.14,0c-.06,0-.09.07-.12.12-.83,1.46-.53,3.43-1.61,4.72a6.6,6.6,0,0,1-.71.69,10.23,10.23,0,0,0-1.7,2l0,.4-.44,0a32.28,32.28,0,0,1-11.69-3.42c-.57-.31-1.14-.65-1.69-1a20,20,0,0,1-2-1.52,22.1,22.1,0,0,1-3.22-3.34,23,23,0,0,1-2.3-3.53c-.37-.71-.71-1.45-1-2.2l.24-.09a4.26,4.26,0,0,1,2.62-2,7.57,7.57,0,0,1,1.32-.28l.67-.07.33,0c.07,0,.17,0,.23,0a.28.28,0,0,0,0-.13c0-.28-.34-.39-.55-.51s-.51-.26-.77-.38a8.43,8.43,0,0,0-5.1-.52l-.23,0a20.75,20.75,0,0,1-.39-3.25,6.46,6.46,0,0,1,1.59-1.2,6.76,6.76,0,0,1,1.57-.59,7.81,7.81,0,0,1,.82-.14c.21,0,.6,0,.64-.24s-.23-.39-.38-.51-.39-.28-.59-.41a7,7,0,0,0-3.26-1.07l-.18,0-.06.42H4a19.1,19.1,0,0,1,1.24-6c.15-.39.32-.78.49-1.16h0a13.41,13.41,0,0,1,.74-1.34,12.82,12.82,0,0,1,1.14-1.52c0,.08.05.17.07.27.37-.57.76-1.11,1.18-1.64l.35-.36c1.25-1.27,2.53-2.52,3.88-3.68h0l0,0a.49.49,0,0,0,.15-.13,38.14,38.14,0,0,1,3-2.35,36.53,36.53,0,0,1,8.51-3.85,56.26,56.26,0,0,1,7.73-2.41c8.4-1.77,17.3.43,24.65,4.91l.06.06a28.86,28.86,0,0,1,3.64,2.89s0,0,0,.05c.31.32.63.62,1,.91.58.51,1.19,1,1.78,1.49h0l.16.2.08.1h0a.18.18,0,0,0,.05.07,0,0,0,0,0,0,0A4,4,0,0,1,64.33,24.78ZM51.07,34.46a15.15,15.15,0,0,0,.2,7,1,1,0,0,0,.53.72,2.8,2.8,0,0,0,.88.27,2.15,2.15,0,0,0,1.7-.58,4.12,4.12,0,0,0,.87-2.62,20.77,20.77,0,0,0-.11-4,6,6,0,0,0-.39-1.64,2.78,2.78,0,0,0-.3-.53,1.86,1.86,0,0,0-2-.79,2,2,0,0,0-1.16,1.38A5.06,5.06,0,0,0,51.07,34.46Z" transform="translate(-0.1 -0.1)" fill="#ffdc64"/>
            <path d="M4.32,44.88l.23,0a8.43,8.43,0,0,1,5.1.52c.26.12.52.24.77.38s.54.23.55.51a.28.28,0,0,1,0,.13c-.06.07-.16,0-.23,0l-.33,0-.67.07a7.57,7.57,0,0,0-1.32.28,4.26,4.26,0,0,0-2.62,2l-.24.09A22.54,22.54,0,0,1,4.32,44.88Z" transform="translate(-0.1 -0.1)" fill="#ffc852"/>
            <path d="M5.57,60.31c-1.05-.56.27-2.84.72-3.5a6.39,6.39,0,0,1,2.55-2.17A22.1,22.1,0,0,0,12.06,58c-.06,1.11-1.21,1.84-2.29,2.15S6.7,60.91,5.57,60.31Z" transform="translate(-0.1 -0.1)" fill="#e5a03b"/>
            <path d="M7.71,28.14c0-.1,0-.19-.07-.27.39-.47.82-.93,1.25-1.37C8.47,27,8.08,27.57,7.71,28.14Z" transform="translate(-0.1 -0.1)" fill="#ffdc64"/>
            <path d="M22.55,30.36v.1a22.67,22.67,0,0,1-5.13-.58c-.48-.1-1-.29-1.17-.73a1,1,0,0,1,.51-1A2.71,2.71,0,0,1,18,27.81a36,36,0,0,1,5.87.06,5,5,0,0,1,1.49.29,1.89,1.89,0,0,1,1.08,1,.7.7,0,0,1,0,.53c-.13.29-.51.39-.83.44A20,20,0,0,1,22.55,30.36Z" transform="translate(-0.1 -0.1)" fill="#f8b3bb"/>
            <path d="M21.47,40.94a15,15,0,0,1-.21-7,7.25,7.25,0,0,1,.22-.86l.83.33a5.85,5.85,0,0,0,.58,2.7c.21.4.49.78.84.8s.8-.54,1-1.11a7.48,7.48,0,0,0,.43-2,7,7,0,0,1,.15.9,20.79,20.79,0,0,1,.11,4,4.07,4.07,0,0,1-.87,2.61,2.3,2.3,0,0,1-1.92.56h-.2A1.2,1.2,0,0,1,21.47,40.94Z" transform="translate(-0.1 -0.1)" fill="#5e5461"/>
            <path d="M22.31,33.45l-.83-.33a2.06,2.06,0,0,1,1.16-1.37,1.86,1.86,0,0,1,2,.79,3.42,3.42,0,0,1,.54,1.27,7.48,7.48,0,0,1-.43,2c-.22.57-.58,1.14-1,1.11s-.63-.4-.84-.8A5.85,5.85,0,0,1,22.31,33.45Z" transform="translate(-0.1 -0.1)" fill="#887c8e"/>
            <path d="M27.92,64l0-.4a10.23,10.23,0,0,1,1.7-2,6.6,6.6,0,0,0,.71-.69c1.08-1.29.78-3.26,1.61-4.72,0-.05.06-.11.12-.12a.17.17,0,0,1,.14,0,1.5,1.5,0,0,1,.67,1.13l.92,3.94c0,.23.21.58.08.77l-.05,0c-.14.12-.48.23-.62.33a3.82,3.82,0,0,0-1,1.1,5.55,5.55,0,0,0-.41.8C30.52,64.19,29.22,64.11,27.92,64Z" transform="translate(-0.1 -0.1)" fill="#ffdc64"/>
            <path d="M31.74,65.59c-.32-.17-.15-.81.08-1.36.62,0,1.25,0,1.87,0-.35.24-.69.5-1,.77S32.08,65.77,31.74,65.59Z" transform="translate(-0.1 -0.1)" fill="#ffdc64"/>
            <path d="M31.82,64.23a5.55,5.55,0,0,1,.41-.8,3.82,3.82,0,0,1,1-1.1c.14-.1.48-.21.62-.33l1.06.45A5.79,5.79,0,0,0,34,64l-.3.2-.05,0C33.07,64.26,32.44,64.25,31.82,64.23Z" transform="translate(-0.1 -0.1)" fill="#ffdc64"/>
            <path d="M40,33.66a8.39,8.39,0,0,1,1.65.37,6.94,6.94,0,0,1-.91,0q-3,0-6.05-.06a2.53,2.53,0,0,1-1.54-.37,2.16,2.16,0,0,1-.55-2.08,7.08,7.08,0,0,1,3.73-5,4.74,4.74,0,0,1,1.36-.5h0l.41-.05a4.43,4.43,0,0,1,2.81.85,7.94,7.94,0,0,1,2.27,2.55A4.6,4.6,0,0,1,44,31.48a2.26,2.26,0,0,1-.32,1.32h0a.57.57,0,0,0,0-.14A4.38,4.38,0,0,0,43,30.12a9.34,9.34,0,0,0-1.8-2,4,4,0,0,0-1.54-.94,2.59,2.59,0,0,0-1-.07,3.13,3.13,0,0,0-1.38,5.67A6.65,6.65,0,0,0,40,33.66Z" transform="translate(-0.1 -0.1)" fill="#4c434f"/>
            <path d="M33.6,68.39c-.44-.15,0-2.49,0-2.9A8.54,8.54,0,0,1,34,64.26c1,0,2.06,0,3.09-.08a26.11,26.11,0,0,0-1.62,2.14c-.26.39-.52.8-.77,1.21s-.33.84-.81.87A.64.64,0,0,1,33.6,68.39Z" transform="translate(-0.1 -0.1)" fill="#ffdc64"/>
            <path d="M33.69,64.26l.05,0L34,64l-.09.24Z" transform="translate(-0.1 -0.1)" fill="#ffdc64"/>
            <path d="M33.83,24.33c.18-.16.33-.37.5-.55a2.33,2.33,0,0,1,1.84-.67,2.18,2.18,0,0,1,.75.19l.17.09a2.3,2.3,0,0,1,1,2.58v0l-.41.05c0-.28,0-.57,0-.86a1.45,1.45,0,0,0-.29-.95,1.93,1.93,0,0,0-1.2-.45,2.44,2.44,0,0,0-.54,0,1.92,1.92,0,0,0-1,.6,1.39,1.39,0,0,1-.35.29.47.47,0,0,1-.43,0,.29.29,0,0,1-.16-.29Z" transform="translate(-0.1 -0.1)" fill="#5e5461"/>
            <path d="M33.83,24.33l-.06.06a.17.17,0,0,1,0-.1Z" transform="translate(-0.1 -0.1)" fill="#ffdc64"/>
            <path d="M43.67,32.79h0a1.72,1.72,0,0,1-.61.59,1.78,1.78,0,0,1-.29.12,4,4,0,0,1-1.15.13l-1.63,0a6.65,6.65,0,0,1-2.77-.85,3.13,3.13,0,0,1,1.38-5.67,2.59,2.59,0,0,1,1,.07,4,4,0,0,1,1.54.94,9.34,9.34,0,0,1,1.8,2,4.38,4.38,0,0,1,.72,2.53A.57.57,0,0,1,43.67,32.79Z" transform="translate(-0.1 -0.1)" fill="#5e5461"/>
            <path d="M40.12,22.93v0a2.87,2.87,0,0,0-.64.23c0-.12,0-.24-.08-.35a2,2,0,0,0-.19-.59,1.18,1.18,0,0,0-1.71-.33,1.93,1.93,0,0,0-.58,1.37,2.18,2.18,0,0,0-.75-.19v-.06a4.07,4.07,0,0,1,.34-2.34,1.85,1.85,0,0,1,3.39,0,4.11,4.11,0,0,1,.4,1.79C40.32,22.65,40.25,22.88,40.12,22.93Z" transform="translate(-0.1 -0.1)" fill="#f37e88"/>
            <path d="M37.1,67c-.6-.18-.22-1.51-.11-1.91a6.49,6.49,0,0,1,.33-.87c1,0,2-.11,3.08-.19l-.71.56a11.75,11.75,0,0,0-1.33,1.31C38.08,66.17,37.62,67.11,37.1,67Z" transform="translate(-0.1 -0.1)" fill="#ffdc64"/>
            <path d="M37.09,23.39l-.17-.09a1.93,1.93,0,0,1,.58-1.37,1.18,1.18,0,0,1,1.71.33,2,2,0,0,1,.19.59c0,.11.05.23.08.35a2.47,2.47,0,0,0-.66.49,2.14,2.14,0,0,0-.58,1.64h0A2.35,2.35,0,0,0,37.09,23.39Z" transform="translate(-0.1 -0.1)" fill="#ef5a6b"/>
            <path d="M37,64.18c.05-.07.11-.13.17-.2a6.77,6.77,0,0,1,.52-.56,6.79,6.79,0,0,0-.41.75Z" transform="translate(-0.1 -0.1)" fill="#ffdc64"/>
            <path d="M39.48,23.2a2.87,2.87,0,0,1,.64-.23,2.84,2.84,0,0,1,.77-.08,1.92,1.92,0,0,1,2,1.5H43a.31.31,0,0,1,0,.1.68.68,0,0,1-.64-.24,4,4,0,0,0-.49-.52,1.59,1.59,0,0,0-1.12-.2,2.32,2.32,0,0,0-.45.06,1.94,1.94,0,0,0-1.44,2.34V26a4.85,4.85,0,0,0-.66,0v0a2.34,2.34,0,0,0,.08-.64h0a2.14,2.14,0,0,1,.58-1.64A2.47,2.47,0,0,1,39.48,23.2Z" transform="translate(-0.1 -0.1)" fill="#5e5461"/>
            <path d="M40,33.66l1.63,0a4,4,0,0,0,1.15-.13v0a2,2,0,0,1-1.14.5A8.39,8.39,0,0,0,40,33.66Z" transform="translate(-0.1 -0.1)" fill="#5e5461"/>
            <path d="M56,31.13v.1a23.43,23.43,0,0,1-5.15-.57c-.48-.11-1-.29-1.17-.73a.92.92,0,0,1,.51-1,2.81,2.81,0,0,1,1.26-.29,38.47,38.47,0,0,1,5.88.06,5.39,5.39,0,0,1,1.5.29,1.87,1.87,0,0,1,1.08,1,.75.75,0,0,1,0,.53c-.14.29-.52.38-.85.43A19.69,19.69,0,0,1,56,31.13Z" transform="translate(-0.1 -0.1)" fill="#f8b3bb"/>
            <path d="M51.27,41.42a15.15,15.15,0,0,1-.2-7,5.06,5.06,0,0,1,.22-.85l.53.18a5.8,5.8,0,0,0,.58,2.69c.21.41.5.78.84.8s.81-.53,1-1.1a7.56,7.56,0,0,0,.46-2.62h0a6,6,0,0,1,.39,1.64,20.77,20.77,0,0,1,.11,4,4.12,4.12,0,0,1-.87,2.62,2.15,2.15,0,0,1-1.7.58,2.8,2.8,0,0,1-.88-.27A1,1,0,0,1,51.27,41.42Z" transform="translate(-0.1 -0.1)" fill="#5e5461"/>
            <path d="M51.82,33.79l-.53-.18a2,2,0,0,1,1.16-1.38,1.86,1.86,0,0,1,2,.79,2.78,2.78,0,0,1,.3.53h0a7.56,7.56,0,0,1-.46,2.62c-.22.57-.58,1.13-1,1.1s-.63-.39-.84-.8A5.8,5.8,0,0,1,51.82,33.79Z" transform="translate(-0.1 -0.1)" fill="#887c8e"/>
            <path d="M57.25,62.33a2.45,2.45,0,0,1-.94-2,20.51,20.51,0,0,0,3.4-2.5h0c-.11.09,0,.32.05.45a6.58,6.58,0,0,0,3.3,2.26,9.2,9.2,0,0,0,3.12.43,1.26,1.26,0,0,0,.64-.12c.7-.43,0-2.92-.26-3.53a3.93,3.93,0,0,0-2.8-2.62l-.32-.32a19.59,19.59,0,0,0,2.37-2.85c.12-.19.24-.37.35-.57h0a7.09,7.09,0,0,1,5.65,5.26,10.8,10.8,0,0,1,.23,2.66,28.53,28.53,0,0,1-.47,5c-.23,1.31-.27,3.31-1.85,3.67a6.8,6.8,0,0,1-3.29-.48A32.79,32.79,0,0,1,63.09,66,17.1,17.1,0,0,1,57.25,62.33Z" transform="translate(-0.1 -0.1)" fill="#ffc852"/>
            <path d="M59.72,57.84h0l1.16-1c.87-.79,1.75-1.58,2.58-2.42l.32.32a3.93,3.93,0,0,1,2.8,2.62c.23.61,1,3.1.26,3.53a1.26,1.26,0,0,1-.64.12,9.2,9.2,0,0,1-3.12-.43,6.58,6.58,0,0,1-3.3-2.26C59.67,58.16,59.61,57.93,59.72,57.84Z" transform="translate(-0.1 -0.1)" fill="#e5a03b"/>
            <path d="M63.73,24l.09.08a.25.25,0,0,0,.07.12Z" transform="translate(-0.1 -0.1)" fill="#ffdc64"/>
            <path d="M64,43.31a.25.25,0,0,1-.07-.25c.05-.27.33-.37.54-.48a6.39,6.39,0,0,1,.81-.35A5.92,5.92,0,0,1,67,41.88a6,6,0,0,1,1.7.13,22.8,22.8,0,0,1-.85,5.16,7.52,7.52,0,0,0-1.26-2.33,4.45,4.45,0,0,0-1.12-1,5.25,5.25,0,0,0-1.33-.52A.25.25,0,0,1,64,43.31Z" transform="translate(-0.1 -0.1)" fill="#ffc852"/>
            <path d="M64,24.39a2.91,2.91,0,0,0,.24.27l0,.12A4,4,0,0,0,64,24.39Z" transform="translate(-0.1 -0.1)" fill="#ffdc64"/>
            <path d="M64.25,37.55a.29.29,0,0,1,0-.16c0-.09,0-.07.07-.11.22-.17.41-.36.63-.51A5.74,5.74,0,0,1,66.35,36a5.85,5.85,0,0,1,2.11-.32,1.94,1.94,0,0,1,0,.24c.13,1.24.23,2.49.25,3.75a4.32,4.32,0,0,0-1.87-1.42,7.59,7.59,0,0,0-1.55-.43l-.8-.13A.33.33,0,0,1,64.25,37.55Z" transform="translate(-0.1 -0.1)" fill="#ffc852"/>
            <path d="M67.58,31.2l.17.31c.08.34.14.69.2,1A12.68,12.68,0,0,0,67.58,31.2Z" transform="translate(-0.1 -0.1)" fill="#ffdc64"/>
          </g>
          <path d="M13.12,28.79a13.93,13.93,0,0,1-7.93-1.67c-.9-.5-1.71.88-.81,1.37a15.4,15.4,0,0,0,8.74,1.89.82.82,0,0,0,.79-.8.79.79,0,0,0-.79-.79Z" transform="translate(-0.1 -0.1)" fill="#ebaf49"/>
          <path d="M62,30a15.77,15.77,0,0,0,8.9-1.92c.89-.5.09-1.87-.81-1.38A14.15,14.15,0,0,1,62,28.42.8.8,0,0,0,62,30Z" transform="translate(-0.1 -0.1)" fill="#ebaf49"/>
          <path d="M55.69,10.61a4.55,4.55,0,0,0,1.55-1.14,4.18,4.18,0,0,0,1-3.13,1.82,1.82,0,0,0-.28-.83A1.61,1.61,0,0,0,57.38,5a3.77,3.77,0,0,0-3-.39,4.08,4.08,0,0,0-1.26.61l0-.07a4.42,4.42,0,0,0-2-4.7A2.14,2.14,0,0,0,49.58.13,2.47,2.47,0,0,0,48.33,1,4.65,4.65,0,0,0,47.9,6.5l-.16.19c-.9-.73-2-1.46-3.19-1.09a1.27,1.27,0,0,0-.61.38,1.4,1.4,0,0,0-.25.79,3.52,3.52,0,0,0,1,2.53,6.42,6.42,0,0,0,2.28,1.5,11,11,0,0,0,8.21.13A1.64,1.64,0,0,0,55.69,10.61Z" transform="translate(-0.1 -0.1)" fill="#ebaf49"/>
          <path d="M19.44,10.73a1.51,1.51,0,0,0,.53.32A11,11,0,0,0,28.16,11a6.41,6.41,0,0,0,2.26-1.49A3.5,3.5,0,0,0,31.37,7a1.31,1.31,0,0,0-.26-.79,1.28,1.28,0,0,0-.6-.39c-1.17-.37-2.28.36-3.18,1.08l-.16-.19a4.63,4.63,0,0,0-.45-5.5A2.53,2.53,0,0,0,25.47.33,2.11,2.11,0,0,0,24,.64a4.36,4.36,0,0,0-2,4.67l0,.07a4,4,0,0,0-1.26-.61,3.76,3.76,0,0,0-3,.37,1.71,1.71,0,0,0-.56.51,1.9,1.9,0,0,0-.27.82,4.17,4.17,0,0,0,1,3.12A4.37,4.37,0,0,0,19.44,10.73Z" transform="translate(-0.1 -0.1)" fill="#ebaf49"/>
          <path d="M62,33.14a29.55,29.55,0,0,0,9.62.33,10.11,10.11,0,0,0,3-.64l-1-.13,0,0-.13-1,0,.06,1.25-.16,0,0c-.71-.74-1.83.39-1.12,1.13l0,0a.81.81,0,0,0,1.25-.16l0-.06a.85.85,0,0,0-.13-1l0,0a.81.81,0,0,0-1-.13A9.55,9.55,0,0,1,71,32c-.94.1-1.89.16-2.84.17a29.51,29.51,0,0,1-5.78-.51c-1-.2-1.43,1.34-.43,1.53Z" transform="translate(-0.1 -0.1)" fill="#ebaf49"/>
          <path d="M12,32.4A22.54,22.54,0,0,1,1.46,31.07C.5,30.71.09,32.25,1,32.61A23.65,23.65,0,0,0,12,34a.83.83,0,0,0,.8-.8.8.8,0,0,0-.8-.79Z" transform="translate(-0.1 -0.1)" fill="#ebaf49"/>
        </g>
        <path d="M52.2,34.88l.19.19-.29-.7h0l0-.27v0l.1-.24h0l.15-.2h0l.2-.16h0l.24-.1h0l.26,0h0l.27,0h0l.24.1h0l.2.15,0,0,.15.2h0l.11.24v0l0,.27v0l0,.27h0l-.1.23h0l-.15.2h0a1,1,0,0,0,.29-.71.73.73,0,0,0-.08-.38.75.75,0,0,0-.21-.32l-.2-.16a1,1,0,0,0-.5-.13l-.27,0a1.1,1.1,0,0,0-.44.26h0l-.16.2h0a.58.58,0,0,0-.05.13.68.68,0,0,0-.09.4h0l0,.26h0a1.12,1.12,0,0,0,.11.25h0l.16.2h0s.19.14.2.16h0l.24.1h0a1.45,1.45,0,0,0,.29,0,1.35,1.35,0,0,0,.28,0,1.21,1.21,0,0,0,.26-.1.87.87,0,0,0,.21-.17h0l.15-.2h0l0-.12a1.23,1.23,0,0,0,0-.13h0s0-.24,0-.26h0a1.24,1.24,0,0,0,0-.27L54,34a.71.71,0,0,0-.13-.22l-.09-.11-.18-.18a.83.83,0,0,0-.32-.2.73.73,0,0,0-.38-.09.75.75,0,0,0-.39.09.83.83,0,0,0-.32.2l-.15.2a1,1,0,0,0-.14.51l0,.26a.92.92,0,0,0,.25.44Z" transform="translate(-0.1 -0.1)" fill="#f4f3f2"/>
        <path d="M23.45,33.4h-.2a.75.75,0,0,0-.39.09.72.72,0,0,0-.32.2.83.83,0,0,0-.2.32.86.86,0,0,0-.09.39l0,.26a.92.92,0,0,0,.25.44l.2.16a1,1,0,0,0,.51.13h.2a.73.73,0,0,0,.38-.08.75.75,0,0,0,.32-.21.69.69,0,0,0,.21-.32.71.71,0,0,0,.08-.38l0-.27a1.17,1.17,0,0,0-.26-.44l-.2-.15a1,1,0,0,0-.5-.14Z" transform="translate(-0.1 -0.1)" fill="#f4f3f2"/>
      </g>
    </g>
  </g>
</svg>
